# Exported from Wings 3D 2.1.5
mtllib Room.mtl
o sphere1
#165 vertices, 310 faces
v 8.7500000e-2 0.52655445 0.0000000e+0
v 6.1871843e-2 0.52655445 6.1871843e-2
v 5.3578297e-18 0.52655445 8.7500000e-2
v -6.1871843e-2 0.52655445 6.1871843e-2
v -8.7500000e-2 0.52655445 1.0715659e-17
v -6.1871843e-2 0.52655445 -6.1871843e-2
v -1.6073489e-17 0.52655445 -8.7500000e-2
v 6.1871843e-2 0.52655445 -6.1871843e-2
v 0.15155445 0.46250000 0.0000000e+0
v 0.10716518 0.46250000 0.10716518
v 9.2800333e-18 0.46250000 0.15155445
v -0.10716518 0.46250000 0.10716518
v -0.15155445 0.46250000 1.8560067e-17
v -0.10716518 0.46250000 -0.10716518
v -2.7840100e-17 0.46250000 -0.15155445
v 0.10716518 0.46250000 -0.10716518
v 0.17500000 0.17500000 0.0000000e+0
v 0.12374369 0.17500000 0.12374369
v 1.0715659e-17 0.17500000 0.17500000
v -0.12374369 0.17500000 0.12374369
v -0.17500000 0.17500000 2.1431319e-17
v -0.12374369 0.17500000 -0.12374369
v -3.2146978e-17 0.17500000 -0.17500000
v 0.12374369 0.17500000 -0.12374369
v 0.15155445 8.7500000e-2 0.0000000e+0
v 0.10716518 8.7500000e-2 0.10716518
v 9.2800333e-18 8.7500000e-2 0.15155445
v -0.10716518 8.7500000e-2 0.10716518
v -0.15155445 8.7500000e-2 1.8560067e-17
v -0.10716518 8.7500000e-2 -0.10716518
v -2.7840100e-17 8.7500000e-2 -0.15155445
v 0.10716518 8.7500000e-2 -0.10716518
v 8.7500000e-2 2.3445554e-2 0.0000000e+0
v 6.1871843e-2 2.3445554e-2 6.1871843e-2
v 5.3578297e-18 2.3445554e-2 8.7500000e-2
v -6.1871843e-2 2.3445554e-2 6.1871843e-2
v -8.7500000e-2 2.3445554e-2 1.0715659e-17
v -6.1871843e-2 2.3445554e-2 -6.1871843e-2
v -1.6073489e-17 2.3445554e-2 -8.7500000e-2
v 6.1871843e-2 2.3445554e-2 -6.1871843e-2
v 0.0000000e+0 0.0000000e+0 0.0000000e+0
v 0.17500000 0.37500000 0.0000000e+0
v 0.12374369 0.37500000 0.12374369
v 1.0715659e-17 0.37500000 0.17500000
v -0.12374369 0.37500000 0.12374369
v -0.17500000 0.37500000 2.1431319e-17
v -0.12374369 0.37500000 -0.12374369
v -3.2146978e-17 0.37500000 -0.17500000
v 0.12374369 0.37500000 -0.12374369
v 7.5000000e-2 0.77993029 1.9708437e-2
v 5.3033009e-2 0.77993029 7.2741445e-2
v 4.5924255e-18 0.77993029 9.4708437e-2
v -5.3033009e-2 0.77993029 7.2741445e-2
v -7.5000000e-2 0.77993029 1.9708437e-2
v -5.3033009e-2 0.77993029 -3.3324572e-2
v -1.3777276e-17 0.77993029 -5.5291563e-2
v 5.3033009e-2 0.77993029 -3.3324572e-2
v 0.12990381 0.72502648 0.0000000e+0
v 9.1855865e-2 0.72502648 9.1855865e-2
v 7.9543143e-18 0.72502648 0.12990381
v -9.1855865e-2 0.72502648 9.1855865e-2
v -0.12990381 0.72502648 1.5908629e-17
v -9.1855865e-2 0.72502648 -7.7019177e-2
v -2.3862943e-17 0.72502648 -9.5312287e-2
v 9.1855865e-2 0.72502648 -7.7019177e-2
v 0.15000000 0.65002648 0.0000000e+0
v 0.10606602 0.65002648 0.10606602
v 9.1848510e-18 0.65002648 0.15000000
v -0.10606602 0.65002648 0.10606602
v -0.15000000 0.65002648 1.8369702e-17
v -9.3550227e-2 0.64480576 -0.11526069
v -2.7554553e-17 0.64480576 -0.12786793
v 9.3550227e-2 0.64480576 -0.11526069
v 0.12990381 0.57502648 0.0000000e+0
v 9.1855865e-2 0.57502648 9.1855865e-2
v 7.9543143e-18 0.57502648 0.12990381
v -9.1855865e-2 0.57502648 9.1855865e-2
v -0.12990381 0.57502648 1.5908629e-17
v -9.1855865e-2 0.56980576 -0.11526069
v -2.3862943e-17 0.56980576 -0.12786793
v 9.1855865e-2 0.56980576 -0.11526069
v 7.5000000e-2 0.52012267 0.0000000e+0
v 5.3033009e-2 0.52012267 5.3033009e-2
v 4.5924255e-18 0.52012267 7.5000000e-2
v -5.3033009e-2 0.52012267 5.3033009e-2
v -7.5000000e-2 0.52012267 9.1848510e-18
v -5.3033009e-2 0.52012267 -5.3033009e-2
v -1.3777276e-17 0.52012267 -7.5000000e-2
v 5.3033009e-2 0.52012267 -5.3033009e-2
v 0.0000000e+0 0.80002648 1.9708437e-2
v 6.4016504e-2 0.77993029 4.6224941e-2
v 6.4016504e-2 0.77993029 -6.8080674e-3
v 0.11087984 0.72502648 4.5927933e-2
v 0.11087984 0.72502648 -3.8509588e-2
v -6.4016504e-2 0.77993029 4.6224941e-2
v -6.4016504e-2 0.77993029 -6.8080674e-3
v -0.11087984 0.72502648 4.5927933e-2
v -0.11087984 0.72502648 -3.8509588e-2
v 0.10245191 0.75247838 9.8542184e-3
v -0.10245191 0.75247838 9.8542184e-3
v 8.7448171e-2 0.75247838 4.6076437e-2
v 8.7448171e-2 0.75247838 -2.2658828e-2
v -8.7448171e-2 0.75247838 4.6076437e-2
v -8.7448171e-2 0.75247838 -2.2658828e-2
v 0.12358318 0.80699295 1.5182078e-2
v 0.11313550 0.80699295 4.6789751e-2
v 0.13542408 0.80699295 4.6612734e-2
v 0.14969587 0.80699295 3.4358500e-3
v -0.12358318 0.80699295 1.5182078e-2
v -0.14969587 0.80699295 3.4358500e-3
v -0.13542408 0.80699295 4.6612734e-2
v -0.11313550 0.80699295 4.6789751e-2
v 0.12358318 0.88107751 1.5182078e-2
v 0.11313550 0.88107751 4.6789751e-2
v 0.13542408 0.88107751 4.6612734e-2
v 0.14969587 0.88107751 3.4358500e-3
v -0.12358318 0.88107751 1.5182078e-2
v -0.14969587 0.88107751 3.4358500e-3
v -0.13542408 0.88107751 4.6612734e-2
v -0.11313550 0.88107751 4.6789751e-2
v -0.10894439 0.81115333 -6.8091416e-4
v -0.10158545 0.81115333 -1.8446972e-2
v -0.11728467 0.79276055 -2.9066982e-2
v -0.12733717 0.79276055 -7.2832405e-3
v 0.10158545 0.81115333 -1.8446972e-2
v 0.10894439 0.81115333 -6.8091416e-4
v 0.12733717 0.79276055 -7.2832405e-3
v 0.11728467 0.79276055 -2.9066982e-2
v -9.2703046e-2 0.67789370 -0.10239331
v -2.5708748e-17 0.67789370 -0.11989771
v 9.2703046e-2 0.67789370 -0.10239331
v -6.1237244e-2 0.72502648 -8.6565024e-2
v -3.0618622e-2 0.72502648 -9.6110870e-2
v 3.0618622e-2 0.72502648 -9.6110870e-2
v 6.1237244e-2 0.72502648 -8.6565024e-2
v -6.1802031e-2 0.67789370 -0.11087166
v -3.0901015e-2 0.67789370 -0.11935001
v 3.0901015e-2 0.67789370 -0.11935001
v 6.1802031e-2 0.67789370 -0.11087166
v -5.3768260e-2 0.71795736 -9.2337452e-2
v -3.8214380e-2 0.71806332 -9.7415862e-2
v -3.8375656e-2 0.68484382 -0.11363626
v -5.4201825e-2 0.68495056 -0.10952046
v 3.8214380e-2 0.71806332 -9.7415862e-2
v 5.3768260e-2 0.71795736 -9.2337452e-2
v 5.4201825e-2 0.68495056 -0.10952046
v 3.8375656e-2 0.68484382 -0.11363626
v -5.7303963e-2 0.62758469 -0.12786793
v -3.5557936e-2 0.62722487 -0.12786793
v -3.5313621e-2 0.60965734 -0.12786793
v -5.7302748e-2 0.60929693 -0.12786793
v 3.5557936e-2 0.62722487 -0.12786793
v 5.7303963e-2 0.62758469 -0.12786793
v 5.7302748e-2 0.60929693 -0.12786793
v 3.5313621e-2 0.60965734 -0.12786793
v -2.5708748e-17 0.59532018 -0.12786793
v -7.4579307e-2 0.59320932 -0.12786793
v 7.4579307e-2 0.59320932 -0.12786793
v -8.3217586e-2 0.57967855 -0.12786793
v 8.3217586e-2 0.57967855 -0.12786793
v -2.4785845e-17 0.58169541 -0.12786793
v -5.5839000e-2 0.57761662 -0.12786793
v 5.5839000e-2 0.57761662 -0.12786793
v -5.0042715e-2 0.59119438 -0.12786793
v 5.0042715e-2 0.59119438 -0.12786793
vn 0.70710678 0.70710678 -1.4460804e-16
vn 0.50000000 0.70710678 0.50000000
vn 4.3382413e-17 0.70710678 0.70710678
vn -0.50000000 0.70710678 0.50000000
vn -0.70710678 0.70710678 1.8799046e-16
vn -0.50000000 0.70710678 -0.50000000
vn 1.4460804e-17 0.70710678 -0.70710678
vn 0.50000000 0.70710678 -0.50000000
vn 0.86380037 0.50383422 -1.5218464e-16
vn 0.61079910 0.50383422 0.61079910
vn -6.0873854e-17 0.50383422 0.86380037
vn -0.61079910 0.50383422 0.61079910
vn -0.86380037 0.50383422 1.8262156e-16
vn -0.61079910 0.50383422 -0.61079910
vn -1.3696617e-16 0.50383422 -0.86380037
vn 0.61079910 0.50383422 -0.61079910
vn 0.99140246 -0.13084788 -9.0680909e-17
vn 0.70102740 -0.13084788 0.70102740
vn 1.2090788e-16 -0.13084788 0.99140246
vn -0.70102740 -0.13084788 0.70102740
vn -0.99140246 -0.13084788 1.3602136e-16
vn -0.70102740 -0.13084788 -0.70102740
vn -1.3602136e-16 -0.13084788 -0.99140246
vn 0.70102740 -0.13084788 -0.70102740
vn 0.86380037 -0.50383422 -6.8483086e-17
vn 0.61079910 -0.50383422 0.61079910
vn 6.0873854e-17 -0.50383422 0.86380037
vn -0.61079910 -0.50383422 0.61079910
vn -0.86380037 -0.50383422 9.8920013e-17
vn -0.61079910 -0.50383422 -0.61079910
vn -6.8483086e-17 -0.50383422 -0.86380037
vn 0.61079910 -0.50383422 -0.61079910
vn 0.49588308 -0.86838930 -4.4116545e-17
vn 0.40418885 -0.82052589 0.40418885
vn 0.0000000e+0 -0.86838930 0.49588308
vn -0.40418885 -0.82052589 0.40418885
vn -0.49588308 -0.86838930 1.4705515e-17
vn -0.40418885 -0.82052589 -0.40418885
vn -1.4705515e-17 -0.86838930 -0.49588308
vn 0.40418885 -0.82052589 -0.40418885
vn 0.0000000e+0 -1.00000000 3.7930386e-17
vn 0.99140246 0.13084788 -4.5340455e-17
vn 0.70102740 0.13084788 0.70102740
vn 1.0579439e-16 0.13084788 0.99140246
vn -0.70102740 0.13084788 0.70102740
vn -0.99140246 0.13084788 6.0453940e-17
vn -0.70102740 0.13084788 -0.70102740
vn -1.2090788e-16 0.13084788 -0.99140246
vn 0.70102740 0.13084788 -0.70102740
vn -0.21593367 0.97608200 2.5230549e-2
vn 0.45111168 0.76127234 0.46579254
vn 3.0706281e-17 0.81313860 0.58207011
vn -0.45111168 0.76127234 0.46579254
vn 0.21593367 0.97608200 2.5230549e-2
vn -0.35957649 0.81601330 -0.45257822
vn -1.7796804e-17 0.78479728 -0.61975256
vn 0.35957649 0.81601330 -0.45257822
vn 0.81735764 0.57604204 -1.0102247e-2
vn 0.65990055 0.48176118 0.57657387
vn -1.6498999e-16 0.40523326 0.91421333
vn -0.65990055 0.48176118 0.57657387
vn -0.81735764 0.57604204 -1.0102247e-2
vn -0.51691536 0.58978692 -0.62044331
vn -8.6998985e-19 0.52722931 -0.84972305
vn 0.51691536 0.58978692 -0.62044331
vn 0.98964451 0.10708475 -9.5585617e-2
vn 0.70710678 2.4759414e-16 0.70710678
vn 3.4044194e-16 -3.8686584e-17 1.00000000
vn -0.70710678 2.6306877e-16 0.70710678
vn -0.98964451 0.10708475 -9.5585617e-2
vn -0.49298084 0.19736465 -0.84735889
vn 3.9415419e-18 0.15759238 -0.98750425
vn 0.48799515 0.20059609 -0.84948334
vn 0.87374591 -0.48613994 1.5363578e-2
vn 0.61079910 -0.50383422 0.61079910
vn 1.2935694e-16 -0.50383422 0.86380037
vn -0.61079910 -0.50383422 0.61079910
vn -0.87374591 -0.48613994 1.5363578e-2
vn -0.52719642 -0.60414146 -0.59755923
vn 1.4297579e-16 -0.59673848 -0.80243578
vn 0.60922034 -0.47001564 -0.63869858
vn 0.70710678 -0.70710678 1.6196101e-15
vn 0.50000000 -0.70710678 0.50000000
vn -1.4460804e-16 -0.70710678 0.70710678
vn -0.50000000 -0.70710678 0.50000000
vn -0.70710678 -0.70710678 2.8921609e-17
vn -0.44549308 -0.77226349 -0.45292937
vn -2.8850625e-17 -0.72871543 -0.68481663
vn 0.44549308 -0.77226349 -0.45292937
vn -9.6331138e-18 1.00000000 1.4449671e-16
vn 0.20550199 0.91204068 0.35489538
vn 4.6623075e-2 0.95179142 -0.30318209
vn 0.84673008 0.40004835 0.35072708
vn 0.80319660 0.44571931 -0.39523350
vn -0.20550199 0.91204068 0.35489538
vn -4.6623075e-2 0.95179142 -0.30318209
vn -0.84673008 0.40004835 0.35072708
vn -0.80319660 0.44571931 -0.39523350
vn 0.99246333 0.11899874 -2.9254713e-2
vn -0.99246333 0.11899874 -2.9254713e-2
vn 0.75414371 0.26901321 0.59908193
vn 0.62344309 0.44223567 -0.64478393
vn -0.75414371 0.26901321 0.59908193
vn -0.62344309 0.44223567 -0.64478393
vn -0.65187847 0.40186809 -0.64308359
vn -0.63558011 0.37727043 0.67357623
vn 0.54009911 -0.21038723 0.81488046
vn 0.61569368 -0.20326728 -0.76131709
vn 0.65187847 0.40186809 -0.64308359
vn -0.61569368 -0.20326728 -0.76131709
vn -0.54009911 -0.21038723 0.81488046
vn 0.63558011 0.37727043 0.67357623
vn -0.65182229 0.47938341 -0.58763870
vn -0.61324283 0.65132345 0.44689035
vn 0.50163379 0.52394490 0.68836421
vn 0.41998297 0.77884124 -0.46585472
vn 0.65182229 0.47938341 -0.58763870
vn -0.41998297 0.77884124 -0.46585472
vn -0.50163379 0.52394490 0.68836421
vn 0.61324283 0.65132345 0.44689035
vn -0.25778606 0.85144061 0.45672227
vn 0.18243187 0.85743405 -0.48117093
vn -0.52325625 0.15513163 -0.83793620
vn -0.97980297 0.12994190 0.15199093
vn -0.18243187 0.85743405 -0.48117093
vn 0.25778606 0.85144061 0.45672227
vn 0.97980297 0.12994190 0.15199093
vn 0.52325625 0.15513163 -0.83793620
vn -0.67444690 0.32581244 -0.66254632
vn -1.6758091e-16 0.38197153 -0.92417409
vn 0.67444690 0.32581244 -0.66254632
vn -0.24420638 0.54777873 -0.80018854
vn -0.17202793 0.51942848 -0.83701879
vn 0.17202793 0.51942848 -0.83701879
vn 0.24420638 0.54777873 -0.80018854
vn -0.24583785 0.42331655 -0.87199017
vn -0.15410321 0.34538293 -0.92572287
vn 0.15410321 0.34538293 -0.92572287
vn 0.24583785 0.42331655 -0.87199017
vn -0.26015412 0.44225408 -0.85833045
vn -0.26800039 0.43681619 -0.85870100
vn -0.24553177 0.43267824 -0.86746971
vn -0.23756559 0.43805190 -0.86699084
vn 0.26800039 0.43681619 -0.85870100
vn 0.26015412 0.44225408 -0.85833045
vn 0.23756559 0.43805190 -0.86699084
vn 0.24553177 0.43267824 -0.86746971
vn -6.7302180e-2 0.19285210 -0.97891700
vn -2.0438262e-2 0.14865454 -0.98867796
vn -4.3800243e-16 0.0000000e+0 -1.00000000
vn -8.6711031e-16 0.0000000e+0 -1.00000000
vn 2.0438262e-2 0.14865454 -0.98867796
vn 6.7302180e-2 0.19285210 -0.97891700
vn 6.7770318e-16 0.0000000e+0 -1.00000000
vn 2.0124351e-16 0.0000000e+0 -1.00000000
vn 1.2030129e-30 0.0000000e+0 -1.00000000
vn -8.4341916e-2 4.7721354e-2 -0.99529348
vn 0.27106856 0.10549445 -0.95676160
vn -0.32398076 -0.18576237 -0.92764692
vn 0.44159538 -0.11641354 -0.88962993
vn 3.0075322e-30 0.0000000e+0 -1.00000000
vn -2.3812752e-2 -0.22450907 -0.97418100
vn 2.3812752e-2 -0.22450907 -0.97418100
vn 5.9986521e-18 0.0000000e+0 -1.00000000
vn -5.9986521e-18 0.0000000e+0 -1.00000000
g sphere1
usemtl black
s 1
f 50//50 108//108 99//99
f 54//54 112//112 95//95
f 91//91 106//106 50//50
f 95//95 112//112 103//103
f 99//99 108//108 101//101
f 100//100 110//110 54//54
f 101//101 106//106 91//91
f 103//103 110//110 100//100
f 105//105 50//50 106//106
f 105//105 108//108 50//50
f 105//105 113//113 108//108
f 106//106 101//101 107//107
f 106//106 113//113 105//105
f 107//107 101//101 108//108
f 107//107 115//115 106//106
f 108//108 115//115 107//107
f 109//109 54//54 110//110
f 109//109 112//112 54//54
f 109//109 117//117 112//112
f 110//110 103//103 111//111
f 110//110 117//117 109//109
f 111//111 103//103 112//112
f 111//111 119//119 110//110
f 112//112 119//119 111//111
f 113//113 106//106 114//114
f 114//114 106//106 115//115
f 114//114 115//115 113//113
f 115//115 108//108 116//116
f 116//116 108//108 113//113
f 116//116 113//113 115//115
f 117//117 110//110 118//118
f 118//118 110//110 119//119
f 118//118 119//119 117//117
f 119//119 112//112 120//120
f 120//120 112//112 117//117
f 120//120 117//117 119//119
f 141//141 142//142 140//140
f 143//143 140//140 142//142
f 145//145 147//147 144//144
f 146//146 147//147 145//145
f 149//149 151//151 148//148
f 150//150 151//151 149//149
f 153//153 154//154 152//152
f 155//155 152//152 154//154
f 156//156 162//162 164//164
f 156//156 163//163 161//161
f 161//161 162//162 156//156
f 165//165 163//163 156//156
usemtl gray
s 1
f 1//1 10//10 9//9
f 1//1 16//16 8//8
f 2//2 10//10 1//1
f 3//3 10//10 2//2
f 3//3 12//12 11//11
f 4//4 12//12 3//3
f 5//5 12//12 4//4
f 5//5 14//14 13//13
f 6//6 14//14 5//5
f 7//7 14//14 6//6
f 7//7 16//16 15//15
f 8//8 16//16 7//7
f 9//9 16//16 1//1
f 9//9 42//42 16//16
f 10//10 42//42 9//9
f 10//10 44//44 43//43
f 11//11 10//10 3//3
f 11//11 44//44 10//10
f 12//12 44//44 11//11
f 12//12 46//46 45//45
f 13//13 12//12 5//5
f 13//13 46//46 12//12
f 14//14 46//46 13//13
f 14//14 48//48 47//47
f 15//15 14//14 7//7
f 15//15 48//48 14//14
f 16//16 42//42 49//49
f 16//16 48//48 15//15
f 17//17 25//25 24//24
f 17//17 42//42 18//18
f 18//18 25//25 17//17
f 18//18 27//27 26//26
f 18//18 42//42 43//43
f 18//18 44//44 19//19
f 19//19 27//27 18//18
f 19//19 44//44 20//20
f 20//20 27//27 19//19
f 20//20 29//29 28//28
f 20//20 44//44 45//45
f 20//20 46//46 21//21
f 21//21 29//29 20//20
f 21//21 46//46 22//22
f 22//22 29//29 21//21
f 22//22 31//31 30//30
f 22//22 46//46 47//47
f 22//22 48//48 23//23
f 23//23 31//31 22//22
f 23//23 48//48 24//24
f 24//24 25//25 32//32
f 24//24 31//31 23//23
f 24//24 42//42 17//17
f 24//24 48//48 49//49
f 25//25 34//34 33//33
f 25//25 40//40 32//32
f 26//26 25//25 18//18
f 26//26 34//34 25//25
f 27//27 34//34 26//26
f 27//27 36//36 35//35
f 28//28 27//27 20//20
f 28//28 36//36 27//27
f 29//29 36//36 28//28
f 29//29 38//38 37//37
f 30//30 29//29 22//22
f 30//30 38//38 29//29
f 31//31 38//38 30//30
f 31//31 40//40 39//39
f 32//32 31//31 24//24
f 32//32 40//40 31//31
f 33//33 40//40 25//25
f 33//33 41//41 40//40
f 34//34 41//41 33//33
f 35//35 34//34 27//27
f 35//35 41//41 34//34
f 36//36 41//41 35//35
f 37//37 36//36 29//29
f 37//37 41//41 36//36
f 38//38 41//41 37//37
f 39//39 38//38 31//31
f 39//39 41//41 38//38
f 40//40 41//41 39//39
f 43//43 42//42 10//10
f 43//43 44//44 18//18
f 45//45 44//44 12//12
f 45//45 46//46 20//20
f 47//47 46//46 14//14
f 47//47 48//48 22//22
f 49//49 42//42 24//24
f 49//49 48//48 16//16
f 50//50 90//90 91//91
f 50//50 125//125 92//92
f 51//51 60//60 59//59
f 51//51 90//90 52//52
f 51//51 91//91 90//90
f 51//51 101//101 91//91
f 52//52 60//60 51//51
f 52//52 90//90 53//53
f 53//53 60//60 52//52
f 53//53 90//90 95//95
f 53//53 103//103 61//61
f 54//54 90//90 96//96
f 54//54 95//95 90//90
f 54//54 124//124 100//100
f 55//55 90//90 56//56
f 55//55 96//96 90//90
f 55//55 104//104 96//96
f 55//55 132//132 63//63
f 56//56 90//90 57//57
f 56//56 133//133 55//55
f 56//56 134//134 64//64
f 57//57 102//102 65//65
f 57//57 134//134 56//56
f 58//58 66//66 94//94
f 58//58 101//101 93//93
f 58//58 102//102 99//99
f 59//59 101//101 51//51
f 60//60 67//67 59//59
f 60//60 69//69 68//68
f 61//61 60//60 53//53
f 61//61 69//69 60//60
f 61//61 103//103 97//97
f 62//62 103//103 100//100
f 62//62 104//104 98//98
f 63//63 104//104 55//55
f 63//63 136//136 129//129
f 64//64 133//133 56//56
f 65//65 94//94 131//131
f 65//65 102//102 94//94
f 65//65 135//135 57//57
f 65//65 139//139 135//135
f 66//66 74//74 73//73
f 66//66 93//93 67//67
f 67//67 74//74 66//66
f 67//67 76//76 75//75
f 67//67 93//93 59//59
f 68//68 67//67 60//60
f 68//68 76//76 67//67
f 69//69 76//76 68//68
f 69//69 78//78 77//77
f 69//69 97//97 70//70
f 70//70 78//78 69//69
f 70//70 97//97 62//62
f 70//70 129//129 71//71
f 71//71 78//78 70//70
f 71//71 137//137 72//72
f 71//71 159//159 79//79
f 72//72 137//137 130//130
f 72//72 138//138 73//73
f 72//72 149//149 71//71
f 72//72 152//152 156//156
f 73//73 74//74 81//81
f 73//73 131//131 66//66
f 73//73 139//139 131//131
f 73//73 152//152 72//72
f 73//73 158//158 153//153
f 74//74 83//83 82//82
f 74//74 89//89 81//81
f 75//75 74//74 67//67
f 75//75 83//83 74//74
f 76//76 83//83 75//75
f 76//76 85//85 84//84
f 77//77 76//76 69//69
f 77//77 85//85 76//76
f 78//78 85//85 77//77
f 78//78 87//87 86//86
f 79//79 78//78 71//71
f 79//79 87//87 78//78
f 79//79 162//162 80//80
f 80//80 87//87 79//79
f 80//80 89//89 88//88
f 80//80 162//162 161//161
f 80//80 163//163 81//81
f 81//81 89//89 80//80
f 81//81 158//158 73//73
f 81//81 163//163 160//160
f 82//82 89//89 74//74
f 84//84 83//83 76//76
f 86//86 85//85 78//78
f 88//88 87//87 80//80
f 90//90 92//92 57//57
f 92//92 90//90 50//50
f 92//92 102//102 57//57
f 92//92 125//125 102//102
f 93//93 66//66 58//58
f 93//93 101//101 59//59
f 94//94 102//102 58//58
f 95//95 103//103 53//53
f 96//96 122//122 54//54
f 97//97 69//69 61//61
f 97//97 103//103 62//62
f 98//98 70//70 62//62
f 98//98 104//104 63//63
f 98//98 129//129 70//70
f 99//99 101//101 58//58
f 99//99 127//127 50//50
f 100//100 104//104 62//62
f 100//100 124//124 104//104
f 102//102 127//127 99//99
f 104//104 122//122 96//96
f 121//121 54//54 122//122
f 121//121 124//124 54//54
f 122//122 104//104 123//123
f 122//122 124//124 121//121
f 123//123 104//104 124//124
f 123//123 124//124 122//122
f 125//125 50//50 126//126
f 126//126 50//50 127//127
f 126//126 127//127 125//125
f 127//127 102//102 128//128
f 128//128 102//102 125//125
f 128//128 125//125 127//127
f 129//129 98//98 63//63
f 129//129 136//136 71//71
f 130//130 133//133 64//64
f 130//130 134//134 138//138
f 130//130 138//138 72//72
f 131//131 94//94 66//66
f 131//131 139//139 65//65
f 132//132 55//55 133//133
f 132//132 136//136 63//63
f 134//134 57//57 135//135
f 134//134 130//130 64//64
f 137//137 71//71 136//136
f 137//137 133//133 130//130
f 139//139 73//73 138//138
f 148//148 71//71 149//149
f 148//148 157//157 71//71
f 149//149 156//156 150//150
f 150//150 164//164 151//151
f 151//151 157//157 148//148
f 151//151 164//164 157//157
f 152//152 73//73 153//153
f 153//153 158//158 154//154
f 154//154 165//165 155//155
f 155//155 156//156 152//152
f 155//155 165//165 156//156
f 156//156 149//149 72//72
f 156//156 164//164 150//150
f 157//157 162//162 159//159
f 158//158 163//163 165//165
f 158//158 165//165 154//154
f 159//159 71//71 157//157
f 159//159 162//162 79//79
f 160//160 158//158 81//81
f 160//160 163//163 158//158
f 161//161 163//163 80//80
f 164//164 162//162 157//157
usemtl white
s 1
f 132//132 140//140 136//136
f 133//133 140//140 132//132
f 134//134 147//147 138//138
f 135//135 145//145 134//134
f 136//136 142//142 137//137
f 137//137 142//142 133//133
f 138//138 147//147 139//139
f 139//139 145//145 135//135
f 140//140 133//133 141//141
f 141//141 133//133 142//142
f 142//142 136//136 143//143
f 143//143 136//136 140//140
f 144//144 134//134 145//145
f 144//144 147//147 134//134
f 145//145 139//139 146//146
f 146//146 139//139 147//147

## Object floor
v  -1.01  0.00   0.99
v   1.00  0.00   0.99
v   1.00  0.00  -1.04
v  -0.99  0.00  -1.04

g floor
usemtl floor
f -4 -3 -2 -1

## Object ceiling 
v  -1.02  1.99   0.99  
v  -1.02  1.99  -1.04
v   1.00  1.99  -1.04
v   1.00  1.99   0.99

g ceiling
usemtl ceiling
f -4 -3 -2 -1

## Object backwall  
v  -0.99  0.00  -1.04 
v   1.00  0.00  -1.04
v   1.00  1.99  -1.04
v  -1.02  1.99  -1.04

g backWall
usemtl backWall
f -4 -3 -2 -1

## Object rightwall 
v	1.00  0.00  -1.04   
v	1.00  0.00   0.99
v	1.00  1.99   0.99
v	1.00  1.99  -1.04

g rightWall
usemtl rightWall
f -4 -3 -2 -1

## Object leftWall   
v  -1.01  0.00   0.99
v  -0.99  0.00  -1.04
v  -1.02  1.99  -1.04
v  -1.02  1.99   0.99

g leftWall
usemtl leftWall
f -4 -3 -2 -1

## Object light 
v	-0.24  1.98   0.16
v	-0.24  1.98  -0.22
v	 0.23  1.98  -0.22
v	 0.23  1.98   0.16

g light
usemtl light
f -4 -3 -2 -1